<svg width="129" height="143" viewBox="0 0 129 143" fill="none" xmlns="http://www.w3.org/2000/svg">
<path d="M69.8688 142.725C69.3473 142.559 68.7982 142.496 68.2524 142.539C66.7163 142.403 65.1886 142.184 63.676 141.884C62.5093 141.651 61.3616 141.331 60.2426 140.927C57.9299 140.084 55.7447 138.925 53.7486 137.484C52.2514 136.412 51.0022 135.031 50.0856 133.434C49.4585 132.306 48.9687 131.106 48.6269 129.862C48.1678 128.219 47.8338 126.543 47.6275 124.85C47.4841 123.789 47.4123 122.713 47.2928 121.646C47.0108 118.925 46.9149 116.188 47.0059 113.455C47.0676 111.932 47.2274 110.414 47.4841 108.912C47.7328 107.291 48.0484 105.684 48.4166 104.096C48.9474 101.815 49.5881 99.5676 50.1763 97.3057C50.7023 95.2972 51.2284 93.2934 51.6875 91.2706C52.0748 89.5634 52.4766 87.8563 52.8257 86.1395C53.1445 84.6316 53.4217 83.1204 53.6576 81.6061C53.9015 80.0902 54.0929 78.5648 54.3081 77.0442C54.5472 75.3752 54.7863 73.6966 55.0302 72.042C55.1545 71.0856 55.2214 70.1292 55.3266 69.1728C55.4892 67.7382 55.6662 66.2797 55.8335 64.8307C55.8814 64.4338 55.8813 64.0274 55.91 63.6258C56.066 62.168 56.1123 60.7006 56.0487 59.2358C56.0391 58.8392 55.9394 58.45 55.7569 58.0977L57.512 58.3224C58.4205 58.4468 59.3292 58.595 60.2426 58.6954C61.5098 58.8389 62.7818 58.9297 64.0442 59.0731C64.6276 59.1401 65.2111 59.1401 65.7992 59.2023C66.9039 59.3218 68.0277 59.2405 69.1467 59.3218C71.2939 59.4748 73.4506 59.4509 75.5834 59.427C77.4723 59.4031 79.3611 59.3506 81.2405 59.2071C82.1969 59.1354 83.1533 59.1497 84.1097 59.0206C85.5061 58.8341 86.9168 58.8006 88.3131 58.6045C89.5325 58.4276 90.7711 58.3703 91.9809 58.1025C92.5261 57.9829 92.6791 58.1646 92.6121 58.7097C92.4878 59.7809 92.421 60.8521 92.3205 61.9233C92.1436 63.8743 92.1387 65.8303 92.1387 67.7861C92.1387 69.8137 92.0909 71.8413 92.2296 73.8641C92.33 75.3226 92.4448 76.7763 92.6409 78.2252C92.9106 80.2624 93.3392 82.2754 93.9225 84.2458C94.4294 85.9243 94.8789 87.6267 95.4049 89.2957C95.8831 90.7924 96.2944 92.3036 96.7726 93.8004C97.2078 95.149 97.4708 96.5548 97.8438 97.9272C98.2455 99.4001 98.5371 100.892 98.8001 102.389C99.0153 103.589 99.221 104.78 99.3501 106.019C99.5079 107.453 99.6275 108.921 99.7566 110.375C99.9478 112.47 99.833 114.564 99.8473 116.654C99.8506 117.949 99.7819 119.244 99.6417 120.532C99.4403 122.831 99.1018 125.116 98.628 127.375C98.1449 129.94 97.188 132.392 95.8065 134.606C94.946 135.919 93.8146 137.032 92.4879 137.872C90.7771 138.919 89.0134 139.876 87.2037 140.741C86.1325 141.208 85.0084 141.544 83.8562 141.74C82.3069 142.075 80.7288 142.257 79.1555 142.467C78.5434 142.549 77.9122 142.534 77.2906 142.572C77.1184 142.572 76.9127 142.482 76.7836 142.687L69.8688 142.725Z" fill="#DDBD46"/>
<path d="M93.2596 0C93.164 0.181718 93.3122 0.176932 93.4174 0.205624C95.0143 0.652311 96.487 1.46057 97.7213 2.5679C99.0526 3.722 100.281 4.98915 101.394 6.35524C102.527 7.73246 103.579 9.17183 104.579 10.659C105.98 12.7344 107.281 14.8673 108.505 17.0527C109.461 18.7312 110.37 20.4001 111.192 22.1455C112.55 24.8839 113.743 27.7008 114.765 30.5811C115.171 31.8148 115.467 33.0822 115.649 34.3684C115.812 35.4882 115.835 36.624 115.716 37.7494C115.557 39.4046 115.055 41.0087 114.243 42.4597C113.635 43.5364 112.923 44.5504 112.115 45.4867C111.624 46.0626 111.102 46.6117 110.551 47.1317C109.504 48.1264 108.361 49.0159 107.228 49.9197C106.305 50.6802 105.305 51.3421 104.244 51.8947C102.792 52.6041 101.267 53.1526 99.6963 53.5302C98.1039 53.9319 96.4876 54.1996 94.876 54.4865C93.5227 54.7256 92.1502 54.8261 90.7873 54.9935C89.4244 55.1609 88.1047 55.3712 86.7561 55.5051C85.9719 55.5864 85.1828 55.6677 84.3985 55.7108C82.5144 55.8207 80.6351 55.9403 78.7509 56.0407C75.5852 56.2129 72.4242 56.1124 69.2633 56.1029C68.1705 56.0979 67.0787 56.0357 65.9924 55.9164C64.4335 55.749 62.865 55.6055 61.3156 55.352C59.8523 55.1082 58.3747 54.9409 56.9114 54.7018C55.3435 54.4466 53.7915 54.1017 52.2632 53.6688C50.1969 53.0692 48.1984 52.2566 46.2999 51.2442C44.7313 50.3767 43.2145 49.4188 41.7571 48.3751C40.4074 47.4433 39.1632 46.3673 38.0462 45.1663C36.8029 43.8744 35.8406 42.339 35.22 40.6568C34.654 38.9929 34.3743 37.245 34.3927 35.4875C34.3765 34.0493 34.4549 32.6116 34.6271 31.1837C34.8376 29.5256 35.1781 27.8866 35.6456 26.282C36.7313 22.8008 38.1618 19.4368 39.916 16.2398C40.9087 14.3376 42.027 12.5036 43.2634 10.75C44.6753 8.68223 46.2607 6.7385 48.0024 4.9398C49.2041 3.6811 50.5583 2.57741 52.0336 1.65448C52.9859 1.11739 54.0465 0.800397 55.1373 0.726763C55.7864 0.631732 56.4419 0.58704 57.0979 0.592939C58.5373 0.673475 59.9648 0.899338 61.3587 1.26717C63.2332 1.74537 65.0934 2.31441 66.9775 2.7687C68.3939 3.10373 69.832 3.33864 71.2813 3.47168C72.6715 3.61105 74.0688 3.66696 75.4656 3.63907C76.7582 3.60216 78.0458 3.45988 79.3153 3.21352C81.0681 2.856 82.7937 2.37654 84.4798 1.77882C85.4362 1.45842 86.3927 1.07116 87.3491 0.760328C88.1885 0.429107 89.068 0.210342 89.9648 0.10989C90.0174 0.10989 90.0653 0.0382563 90.1131 0H92.8627C92.8627 0.0286922 92.8962 0.0812865 92.9154 0.0812865C92.9345 0.0812865 92.9824 0.0478204 92.9632 0H93.2596ZM87.2487 21.3518C87.1878 22.8734 87.6187 24.3741 88.4776 25.6317C88.9772 26.418 89.7594 26.9828 90.663 27.2097C91.1867 27.3193 91.7299 27.293 92.2406 27.1331C92.7512 26.9732 93.2124 26.6851 93.5801 26.2964C94.4716 25.4176 95.0581 24.2763 95.2537 23.0398C95.4755 22.0739 95.4888 21.0718 95.2925 20.1004C95.0963 19.129 94.6951 18.2106 94.1157 17.4066C93.83 16.9474 93.4347 16.5662 92.9656 16.2971C92.4964 16.0281 91.968 15.8797 91.4274 15.865C90.8868 15.8503 90.351 15.9699 89.8679 16.2131C89.3849 16.4562 88.9695 16.8153 88.6593 17.2583C87.741 18.4284 87.2441 19.8739 87.2487 21.3613V21.3518ZM58.3794 22.0594C58.4938 20.4349 58.0612 18.8188 57.1505 17.4687C56.8699 17.0015 56.4778 16.6112 56.0094 16.3328C55.5409 16.0543 55.0107 15.8964 54.4662 15.8732C53.9218 15.85 53.38 15.9621 52.8895 16.1997C52.3991 16.4372 51.9753 16.7927 51.6559 17.2344C50.9901 18.0652 50.5488 19.0532 50.3743 20.1036C50.1649 21.0714 50.1596 22.0724 50.3589 23.0423C50.5581 24.0123 50.9576 24.93 51.5316 25.7369C52.0162 26.4751 52.7631 27.0015 53.6213 27.2097C54.1015 27.3121 54.5991 27.2997 55.0736 27.1733C55.5481 27.047 55.9861 26.8105 56.3519 26.4829C56.98 25.9281 57.4848 25.2478 57.834 24.4859C58.1832 23.7241 58.369 22.8975 58.3794 22.0594Z" fill="#DDBD46"/>
<path d="M0.0430512 95.239C0.310846 94.9568 0.172038 94.5886 0.210294 94.2825C0.368102 92.9196 0.621654 91.5663 0.884666 90.2226C1.19072 88.6541 1.59237 87.0999 2.01319 85.5506C2.43401 84.0012 2.96965 82.4135 3.52436 80.888C4.03126 79.573 4.62901 78.2818 5.25546 77.0098C6.02535 75.4286 6.89579 73.8985 7.86159 72.4287C8.93246 70.8234 10.1354 69.3102 11.4578 67.9048C12.9881 66.2702 14.7092 64.8252 16.5841 63.601C18.1222 62.5535 19.8458 61.8085 21.6626 61.406C22.0808 61.3461 22.5045 61.3365 22.925 61.3774C23.2358 61.3774 23.3028 61.6212 23.3028 61.8794C23.2393 62.5814 23.0464 63.2658 22.7338 63.8975C21.9687 65.906 21.0792 67.8666 20.2376 69.8415C19.2381 72.18 18.4013 74.571 17.6218 76.9812C17.0606 78.7256 16.6227 80.5073 16.3114 82.3131C16.1058 83.5182 15.9576 84.7281 15.8668 85.9523C15.7833 86.8216 15.7593 87.6956 15.795 88.5681C15.8932 90.5527 16.3065 92.509 17.0192 94.3638C17.978 96.554 19.4316 98.4922 21.2657 100.026C22.988 101.637 24.849 103.093 26.8272 104.378C28.2727 105.335 29.8012 106.161 31.3941 106.845C33.2367 107.632 35.1614 108.211 37.1325 108.571C38.9082 108.867 40.7076 108.997 42.5075 108.959C42.8087 108.959 43.1101 108.906 43.4114 108.877C43.7127 108.849 43.8178 108.978 43.7508 109.231C43.6265 110.182 43.5689 111.141 43.5786 112.1C43.4925 112.87 43.5787 113.655 43.55 114.434C43.507 116.261 43.55 118.092 43.6456 119.914C43.721 122.544 44.116 125.155 44.822 127.69C45.1693 129.011 45.6499 130.292 46.2566 131.516C46.4478 131.865 46.3379 131.965 46.0175 131.994C45.4341 132.051 44.8507 132.137 44.2673 132.147C42.5745 132.147 40.8768 132.228 39.1887 132.147C37.6393 132.056 36.0948 131.917 34.5549 131.669C33.0151 131.42 31.3605 131.123 29.7729 130.736C28.1207 130.329 26.491 129.836 24.8905 129.259C23.298 128.685 21.7296 128.053 20.1993 127.346C18.8604 126.729 17.5548 126.045 16.2732 125.323C15.0466 124.673 13.8587 123.953 12.7154 123.166C11.8642 122.549 11.0512 121.889 10.2478 121.21C9.28856 120.359 8.39942 119.431 7.58898 118.437C6.24768 116.844 5.07312 115.118 4.08374 113.286C3.27341 111.793 2.57659 110.241 1.99889 108.643C1.35598 106.917 0.867767 105.138 0.540256 103.325C0.316405 102.293 0.175767 101.244 0.119522 100.188C0.127728 100.138 0.120696 100.087 0.0993826 100.041C0.0780688 99.9948 0.0434831 99.9562 0 99.9301L0.0430512 95.239Z" fill="#DDBD46"/>
<path d="M128.374 120.559C128.197 120.516 128.188 120.635 128.169 120.76C127.733 123.913 126.478 126.897 124.529 129.415C123.267 131.019 121.781 132.433 120.116 133.614C118.714 134.656 117.22 135.57 115.654 136.344C113.853 137.224 111.949 137.878 109.987 138.29C108.155 138.66 106.28 138.775 104.416 138.63C102.259 138.473 100.139 137.99 98.1278 137.195C97.927 137.119 97.8505 137.004 98.0513 136.794C98.6584 136.257 99.198 135.648 99.6581 134.981C100.247 133.999 100.749 132.967 101.16 131.897C101.653 130.601 102.04 129.267 102.317 127.909C102.58 126.57 102.838 125.226 102.981 123.858C103.125 122.491 103.259 121.056 103.383 119.65C103.536 117.881 103.503 116.111 103.594 114.347C103.668 113.552 103.695 112.754 103.675 111.956C103.584 109.949 103.392 107.947 103.101 105.959C102.805 104.18 102.479 102.406 102.078 100.651C101.676 98.8959 101.25 97.2127 100.758 95.5103C100.404 94.3101 100.098 93.0954 99.7154 91.9047C99.6055 91.5508 99.505 91.1969 99.3855 90.8478C99.2085 90.317 99.2994 90.1831 99.835 90.2692C101.002 90.4509 102.169 90.6518 103.34 90.8335C105.325 91.1396 107.276 91.6178 109.222 92.1103C110.898 92.5418 112.54 93.098 114.133 93.7744C116.573 94.7727 118.862 96.1071 120.933 97.7388C121.843 98.4946 122.68 99.3335 123.434 100.245C124.444 101.466 125.29 102.815 125.95 104.257C126.707 105.897 127.273 107.619 127.638 109.388C127.97 110.891 128.18 112.418 128.264 113.955C128.264 114.041 128.264 114.127 128.374 114.155V119.645C128.287 119.743 128.239 119.87 128.239 120.002C128.239 120.133 128.287 120.26 128.374 120.358V120.559Z" fill="#DDBD46"/>
</svg>
